HIERARCHY
ROOT character_A_root
{
	OFFSET 0.000000 0.000000 0.000000
	CHANNELS 6 Xposition Yposition Zposition Xrotation Yrotation Zrotation
	JOINT character_A_pelvis
	{
		OFFSET 0.000000 0.000000 0.000000
		CHANNELS 3 Xrotation Yrotation Zrotation
		JOINT character_A_spine
		{
			OFFSET -0.006400 0.538076 0.000000
			CHANNELS 3 Xrotation Yrotation Zrotation
			JOINT character_A_head
			{
				OFFSET 0.012744 0.245383 0.000000
				CHANNELS 3 Xrotation Yrotation Zrotation
				JOINT character_A_nose
				{
					OFFSET -0.008787 -0.131621 -0.002605
					CHANNELS 3 Xrotation Yrotation Zrotation
					End Site
					{
						OFFSET 0.000000 0.050000 0.000000
					}
				}
			}
			JOINT character_A_left_shoulder
			{
				OFFSET 0.108057 -0.069769 0.094471
				CHANNELS 3 Xrotation Yrotation Zrotation
				JOINT character_A_left_elbow
				{
					OFFSET 0.031628 -0.239596 -0.139088
					CHANNELS 3 Xrotation Yrotation Zrotation
					JOINT character_A_left_wrist
					{
						OFFSET 0.010597 -0.101834 -0.186326
						CHANNELS 3 Xrotation Yrotation Zrotation
						End Site
						{
							OFFSET 0.000000 0.050000 0.000000
						}
					}
				}
			}
			JOINT character_A_right_shoulder
			{
				OFFSET -0.114595 -0.059038 0.102763
				CHANNELS 3 Xrotation Yrotation Zrotation
				JOINT character_A_right_elbow
				{
					OFFSET -0.054650 -0.246550 -0.079184
					CHANNELS 3 Xrotation Yrotation Zrotation
					JOINT character_A_right_wrist
					{
						OFFSET -0.039546 -0.120930 -0.167408
						CHANNELS 3 Xrotation Yrotation Zrotation
						End Site
						{
							OFFSET 0.000000 0.050000 0.000000
						}
					}
				}
			}
		}
		JOINT character_A_left_hip
		{
			OFFSET 0.064495 -0.018473 0.101805
			CHANNELS 3 Xrotation Yrotation Zrotation
			JOINT character_A_left_knee
			{
				OFFSET -0.013415 -0.404926 0.097567
				CHANNELS 3 Xrotation Yrotation Zrotation
				JOINT character_A_left_ankle
				{
					OFFSET -0.033827 -0.357830 0.207383
					CHANNELS 3 Xrotation Yrotation Zrotation
					JOINT character_A_left_big_toe
					{
						OFFSET -0.008355 -0.113888 0.066374
						CHANNELS 3 Xrotation Yrotation Zrotation
						End Site
						{
							OFFSET 0.000000 0.050000 0.000000
						}
					}
					JOINT character_A_left_small_toe
					{
						OFFSET 0.019861 -0.105049 0.045203
						CHANNELS 3 Xrotation Yrotation Zrotation
						End Site
						{
							OFFSET 0.000000 0.050000 0.000000
						}
					}
					JOINT character_A_left_heel
					{
						OFFSET -0.015740 -0.054451 0.041248
						CHANNELS 3 Xrotation Yrotation Zrotation
						End Site
						{
							OFFSET 0.000000 0.050000 0.000000
						}
					}
				}
			}
		}
		JOINT character_A_right_hip
		{
			OFFSET -0.060818 -0.017714 0.289385
			CHANNELS 3 Xrotation Yrotation Zrotation
			JOINT character_A_right_knee
			{
				OFFSET 0.024497 -0.400024 0.102706
				CHANNELS 3 Xrotation Yrotation Zrotation
				JOINT character_A_right_ankle
				{
					OFFSET 0.016037 -0.354408 0.210815
					CHANNELS 3 Xrotation Yrotation Zrotation
					JOINT character_A_right_big_toe
					{
						OFFSET -0.000881 -0.112993 0.055364
						CHANNELS 3 Xrotation Yrotation Zrotation
						End Site
						{
							OFFSET 0.000000 0.050000 0.000000
						}
					}
					JOINT character_A_right_small_toe
					{
						OFFSET -0.021559 -0.104872 0.042888
						CHANNELS 3 Xrotation Yrotation Zrotation
						End Site
						{
							OFFSET 0.000000 0.050000 0.000000
						}
					}
					JOINT character_A_right_heel
					{
						OFFSET 0.008712 -0.057795 0.038858
						CHANNELS 3 Xrotation Yrotation Zrotation
						End Site
						{
							OFFSET 0.000000 0.050000 0.000000
						}
					}
				}
			}
		}
	}
}
MOTION
Frames: 14
Frame Time: 0.03333333
2.876473 -0.419284 3.223916 0.000000 0.000000 0.000000 -1.314329 -1.613470 -5.905736 1.315334 -0.410970 5.632504 -1.078930 2.344352 -3.683300 -0.000000 0.000000 0.000000 -14.127373 6.902894 -8.372374 -19.171237 6.216108 2.471074 -0.000000 0.000000 0.000000 0.667002 0.200950 6.055620 -24.060964 -1.121167 2.742207 0.000000 0.000000 0.000000 -11.801996 -0.003596 -0.374851 4.595153 -0.725606 1.503010 8.360634 -23.549974 6.640079 -0.000000 0.000000 0.000000 -0.000000 0.000000 0.000000 -0.000000 0.000000 0.000000 -14.847333 -0.718732 7.907094 15.512940 -0.044609 -2.391301 -2.513357 -12.501680 12.954291 0.000000 0.000000 -0.000000 0.000000 0.000000 -0.000000 0.000000 0.000000 -0.000000
2.862065 -0.427726 3.115783 0.000000 0.000000 0.000000 -1.343375 -1.224108 -5.168546 1.516272 -1.181066 5.259089 -1.178535 2.689952 -2.646741 0.000000 0.000000 0.000000 -19.818211 7.275962 -8.566044 -19.535414 3.381521 3.492339 -0.000000 0.000000 -0.000000 -1.649576 0.296122 7.758650 -21.585262 -2.854899 1.925630 -0.000000 0.000000 -0.000000 -13.824012 -0.286232 -1.639601 6.077679 -0.371481 2.353974 7.615472 -37.261888 11.460455 0.000000 0.000000 0.000000 0.000000 0.000000 0.000000 0.000000 0.000000 0.000000 -15.277424 -0.889940 7.963850 14.476312 -0.534299 -3.553029 1.701409 -10.106000 13.118427 -0.000000 0.000000 0.000000 -0.000000 0.000000 0.000000 -0.000000 0.000000 0.000000
2.852875 -0.433842 3.035170 0.000000 0.000000 0.000000 -1.360996 -1.427216 -4.517728 1.878239 -1.212484 4.835494 -1.526167 2.912079 -1.806205 -0.000000 0.000000 -0.000000 -23.858335 7.563220 -8.669617 -23.531506 0.305579 3.677509 0.000000 0.000000 -0.000000 -2.640349 0.002341 9.501200 -21.256594 -2.969001 0.892394 0.000000 0.000000 0.000000 -15.127215 0.054112 -2.502589 6.940297 -0.127636 2.929378 4.206307 -43.382573 12.203903 0.000000 0.000000 0.000000 0.000000 0.000000 0.000000 0.000000 0.000000 0.000000 -15.863976 -0.542820 8.122423 14.064402 -1.015215 -4.726280 3.835512 -9.162760 14.711624 0.000000 0.000000 0.000000 0.000000 0.000000 0.000000 0.000000 0.000000 0.000000
2.849210 -0.438014 2.977092 0.000000 0.000000 0.000000 -1.336929 -1.768210 -3.714782 2.185826 -0.689932 4.089938 -1.908022 2.729069 -1.821317 0.000000 0.000000 0.000000 -20.967659 6.860564 -8.127992 -22.990623 -1.804527 3.468470 -0.000000 0.000000 -0.000000 -2.844386 -0.965127 11.729798 -20.467447 -3.044157 -0.504086 0.000000 0.000000 0.000000 -15.936666 0.572172 -3.605217 7.767929 0.098787 3.571904 -0.608980 -42.730052 11.365926 0.000000 0.000000 0.000000 0.000000 0.000000 0.000000 0.000000 0.000000 0.000000 -15.504751 0.097967 7.720884 13.434990 -1.232654 -5.201082 4.331437 -12.639186 16.644455 -0.000000 0.000000 -0.000000 -0.000000 0.000000 -0.000000 -0.000000 0.000000 -0.000000
2.851773 -0.441116 2.945998 0.000000 0.000000 0.000000 -1.229850 -1.235159 -2.923352 1.661483 -1.001547 4.068132 -1.454597 2.475718 -2.847998 -0.000000 0.000000 0.000000 -14.012102 6.070115 -7.903272 -21.362185 -5.255688 3.592333 -0.000000 0.000000 0.000000 1.041494 -2.152816 12.538119 -23.860300 -3.254876 -0.213611 -0.000000 0.000000 0.000000 -15.732368 0.182047 -5.381602 8.188687 0.273452 4.370350 -3.467211 -40.956005 11.037628 -0.000000 0.000000 -0.000000 -0.000000 0.000000 -0.000000 -0.000000 0.000000 -0.000000 -14.417773 -0.034463 6.847031 12.796475 -1.490551 -5.567594 11.036063 -20.779992 23.119345 -0.000000 0.000000 -0.000000 -0.000000 0.000000 -0.000000 -0.000000 0.000000 -0.000000
2.852057 -0.446625 2.902354 0.000000 0.000000 0.000000 -1.461472 -0.528633 -1.880383 1.290966 -1.326840 3.686298 -0.840364 2.087943 -4.777211 0.000000 0.000000 -0.000000 -6.031483 5.040423 -7.465684 -20.535444 -10.854362 4.625449 0.000000 0.000000 0.000000 5.090926 -3.826308 14.853904 -27.589043 -5.467118 0.602838 0.000000 0.000000 0.000000 -14.848993 -0.275151 -6.817674 8.001264 0.018999 3.999874 -3.274587 -28.100867 8.694401 0.000000 0.000000 -0.000000 0.000000 0.000000 -0.000000 0.000000 0.000000 -0.000000 -13.256067 -0.350518 5.550497 12.829156 -1.495129 -5.411687 9.674027 -24.968831 25.534603 -0.000000 0.000000 -0.000000 -0.000000 0.000000 -0.000000 -0.000000 0.000000 -0.000000
2.850289 -0.454776 2.862252 0.000000 0.000000 0.000000 -1.788620 0.083733 -1.245899 0.368308 -0.303252 3.032337 0.327388 0.425824 -6.307870 0.000000 0.000000 0.000000 -0.008870 3.257010 -7.217173 -18.915733 -16.828482 7.020202 0.000000 0.000000 -0.000000 6.891474 -5.999729 16.689693 -26.521760 -13.396575 3.172421 -0.000000 0.000000 -0.000000 -14.112752 -0.669260 -6.937890 8.186228 -0.441301 2.756585 0.742595 -10.516062 5.470002 0.000000 0.000000 0.000000 0.000000 0.000000 0.000000 0.000000 0.000000 0.000000 -12.892674 -0.797994 4.739051 14.363017 -1.540756 -5.354701 12.714609 -35.292266 34.469715 0.000000 0.000000 0.000000 0.000000 0.000000 0.000000 0.000000 0.000000 0.000000
2.848305 -0.462324 2.828062 0.000000 0.000000 0.000000 -2.317808 0.536028 -0.699497 -0.840427 1.465377 2.410330 3.260690 -2.017812 -7.103220 -0.000000 0.000000 -0.000000 4.233616 0.701174 -6.331798 -16.136017 -22.018773 9.762183 -0.000000 0.000000 -0.000000 6.143164 -8.098291 17.003417 -21.884190 -22.637922 6.371753 -0.000000 0.000000 0.000000 -13.522170 -0.903866 -6.849038 8.718143 -0.866219 1.557611 4.301656 -0.539051 4.600902 -0.000000 0.000000 -0.000000 -0.000000 0.000000 -0.000000 -0.000000 0.000000 -0.000000 -12.720397 -1.127803 4.266571 16.258752 -1.750126 -5.652779 17.869552 -44.339720 44.872187 -0.000000 0.000000 -0.000000 -0.000000 0.000000 -0.000000 -0.000000 0.000000 -0.000000
2.848537 -0.472180 2.777046 0.000000 0.000000 0.000000 -2.366202 0.312187 -0.458023 -1.982316 2.938549 1.940135 3.976363 -3.221346 -6.788193 0.000000 0.000000 -0.000000 6.862995 -0.091916 -6.564060 -9.884569 -26.059343 14.276408 -0.000000 0.000000 0.000000 7.059881 -9.127017 16.706396 -17.280473 -32.276200 12.042510 0.000000 0.000000 0.000000 -13.108946 -0.602117 -6.434076 7.642382 -1.443688 0.092503 7.981448 5.191272 5.364682 -0.000000 0.000000 0.000000 -0.000000 0.000000 0.000000 -0.000000 0.000000 0.000000 -12.002913 -0.793632 4.055561 18.600770 -1.722018 -5.338031 20.433369 -48.929525 53.222108 -0.000000 0.000000 0.000000 -0.000000 0.000000 0.000000 -0.000000 0.000000 0.000000
2.842476 -0.479400 2.690442 0.000000 0.000000 0.000000 -1.972614 -0.195396 -0.478314 -3.357717 4.318130 1.913953 7.646777 -4.473223 -4.921583 0.000000 0.000000 0.000000 8.437806 -0.344407 -7.388217 -3.049939 -28.084610 18.815956 0.000000 0.000000 0.000000 7.397364 -9.606372 15.634359 -10.189190 -39.547533 18.198507 -0.000000 0.000000 -0.000000 -14.109548 -0.023619 -5.861800 6.873964 -1.787506 -0.991520 10.317679 9.294817 4.670447 0.000000 0.000000 -0.000000 0.000000 0.000000 -0.000000 0.000000 0.000000 -0.000000 -12.997732 -0.423940 3.694848 21.628364 -1.271791 -4.450571 24.395091 -51.545627 60.004828 -0.000000 0.000000 0.000000 -0.000000 0.000000 0.000000 -0.000000 0.000000 0.000000
2.834093 -0.484274 2.585361 0.000000 0.000000 0.000000 -1.304243 -0.501299 -0.703974 -4.811927 5.294515 1.989771 10.556141 -5.362863 -3.182841 0.000000 0.000000 -0.000000 9.505696 -0.446378 -8.060962 3.678342 -27.854411 22.461155 -0.000000 0.000000 -0.000000 6.250927 -9.347295 13.166034 5.132931 -45.408265 27.525091 0.000000 0.000000 -0.000000 -14.886328 0.327308 -4.405754 4.888963 -2.870388 -4.276107 13.354287 12.136608 4.162367 0.000000 0.000000 0.000000 0.000000 0.000000 0.000000 0.000000 0.000000 0.000000 -13.916715 -0.231124 3.820553 23.336926 -0.942431 -3.900481 29.835041 -54.807420 69.143111 0.000000 0.000000 -0.000000 0.000000 0.000000 -0.000000 0.000000 0.000000 -0.000000
2.834813 -0.488049 2.528960 0.000000 0.000000 0.000000 -1.178214 -0.835902 -0.646528 -4.972122 6.352881 1.200439 9.852509 -5.863108 -2.159303 0.000000 0.000000 0.000000 9.386322 -1.171442 -6.953487 4.920724 -29.551715 23.882828 0.000000 0.000000 0.000000 7.178283 -8.671965 9.511499 21.176755 -46.496956 39.852892 0.000000 0.000000 0.000000 -12.116028 0.820367 -1.597882 0.297474 -5.242800 -11.852512 17.405956 14.413887 4.454219 0.000000 0.000000 0.000000 0.000000 0.000000 0.000000 0.000000 0.000000 0.000000 -11.202853 0.432928 4.115897 22.292550 -0.995776 -3.800453 39.338150 -57.138134 84.044144 0.000000 0.000000 -0.000000 0.000000 0.000000 -0.000000 0.000000 0.000000 -0.000000
2.843271 -0.496360 2.529112 0.000000 0.000000 0.000000 -1.715256 -0.914975 -0.514399 -4.412235 6.540519 0.239121 8.198989 -5.693493 -1.879750 -0.000000 0.000000 -0.000000 9.294896 -0.735034 -6.876284 4.856734 -30.910811 25.078710 0.000000 0.000000 -0.000000 10.532355 -7.294542 4.384827 28.682315 -43.854784 49.873994 0.000000 0.000000 0.000000 -3.934173 1.245020 1.540747 -8.523855 -8.079732 -21.865928 18.817884 16.944228 6.022466 0.000000 0.000000 -0.000000 0.000000 0.000000 -0.000000 0.000000 0.000000 -0.000000 -2.116256 1.623164 4.869493 15.243158 -1.693582 -4.528308 72.161662 -52.533425 123.929670 0.000000 0.000000 0.000000 0.000000 0.000000 0.000000 0.000000 0.000000 0.000000
2.851659 -0.504096 2.520994 0.000000 0.000000 0.000000 -1.624387 -0.845665 -0.869921 -3.781557 3.778505 0.249543 6.338798 -2.915893 -3.062906 0.000000 0.000000 -0.000000 9.302755 2.411762 -7.790923 -2.227808 -27.738461 20.502778 0.000000 0.000000 -0.000000 13.872671 -3.858014 -1.627437 27.951826 -40.268710 54.388593 -0.000000 0.000000 0.000000 2.682262 1.836781 4.765365 -15.464011 -10.847034 -31.342983 20.097730 15.335959 7.823354 -0.000000 0.000000 0.000000 -0.000000 0.000000 0.000000 -0.000000 0.000000 0.000000 3.652793 2.463856 6.002343 10.009333 -2.231920 -5.335557 104.094271 -18.633066 165.456356 -0.000000 0.000000 0.000000 -0.000000 0.000000 0.000000 -0.000000 0.000000 0.000000
